<?xml version="1.0" standalone="no"?>
<!DOCTYPE svg PUBLIC "-//W3C//DTD SVG 20010904//EN"
 "http://www.w3.org/TR/2001/REC-SVG-20010904/DTD/svg10.dtd">
<svg version="1.0" xmlns="http://www.w3.org/2000/svg"
 width="512.000000pt" height="512.000000pt" viewBox="0 0 512.000000 512.000000"
 preserveAspectRatio="xMidYMid meet">

<g transform="translate(0.000000,512.000000) scale(0.100000,-0.100000)"
fill="#000000" stroke="none">
<path d="M3100 5110 c-112 -19 -211 -94 -262 -198 -33 -66 -33 -67 -33 -217 0
-142 1 -153 27 -207 34 -74 95 -139 164 -174 46 -25 54 -33 52 -54 -3 -22 -10
-26 -53 -33 -128 -20 -313 -61 -340 -74 -43 -22 -84 -62 -108 -108 -21 -38
-22 -54 -25 -382 l-3 -343 -158 0 -158 0 -14 -26 c-19 -36 -92 -99 -145 -124
-32 -16 -44 -28 -44 -44 0 -20 11 -24 175 -54 187 -34 231 -50 281 -104 67
-71 69 -77 72 -357 3 -200 7 -259 18 -275 8 -12 14 -45 14 -83 l0 -63 54 0 54
0 -15 51 c-11 38 -14 84 -11 174 4 113 6 127 36 188 79 160 248 242 416 203
77 -18 121 -42 182 -98 l42 -38 4 103 c3 95 6 109 34 153 44 73 104 104 260
137 71 15 150 30 177 33 43 6 47 9 47 34 0 22 -9 33 -43 53 -96 56 -173 174
-184 280 -7 70 21 237 52 305 14 29 49 77 82 110 47 47 57 62 54 87 -7 74 -61
149 -133 186 -21 10 -117 34 -213 51 l-177 33 4 32 c3 25 0 33 -12 33 -29 0
-127 78 -158 126 -55 82 -64 128 -60 287 3 123 7 148 27 189 32 67 94 133 152
165 41 22 47 28 32 34 -34 12 -118 17 -163 9z m258 -1557 c29 -27 49 -52 46
-56 -4 -4 -3 -7 3 -7 14 0 15 -92 0 -110 -32 -41 -60 -50 -155 -50 -92 0 -95
1 -123 31 -24 25 -29 40 -29 79 0 42 4 52 35 79 31 27 58 37 88 32 4 0 7 8 7
18 0 27 38 53 59 41 9 -5 40 -31 69 -57z"/>
<path d="M720 4223 c-123 -20 -292 -57 -323 -70 -49 -21 -110 -90 -125 -141
-7 -23 -12 -107 -12 -206 l0 -166 115 0 115 0 0 -40 0 -40 175 0 174 0 34 30
c50 43 107 37 107 -12 0 -13 8 -18 30 -18 18 0 42 -11 63 -30 33 -29 38 -30
130 -30 l96 0 3 73 3 72 106 3 106 3 11 50 c18 76 15 256 -4 314 -19 53 -72
112 -124 137 -26 12 -344 78 -376 78 -2 0 -4 -23 -4 -51 0 -61 -22 -103 -66
-124 -40 -19 -77 -19 -113 -1 -40 21 -60 56 -67 120 -4 32 -12 55 -18 55 -6
-1 -22 -4 -36 -6z"/>
<path d="M16 3298 c-23 -32 -23 -214 0 -246 13 -19 24 -22 91 -22 73 0 75 -1
70 -22 -49 -197 -73 -498 -58 -713 25 -343 99 -621 245 -920 118 -242 262
-445 454 -639 270 -273 596 -479 956 -603 61 -21 293 -83 310 -83 3 0 6 151 6
335 l0 335 -60 0 c-48 0 -61 4 -70 19 -5 11 -10 71 -10 135 0 91 3 118 16 130
13 13 46 16 203 16 l188 0 7 331 c5 260 10 339 22 367 36 87 97 134 204 158
45 10 -108 12 -842 13 l-897 1 -15 22 c-12 17 -16 49 -16 130 0 153 -7 148
209 148 l169 0 4 71 c3 49 9 75 19 83 14 9 16 46 15 261 -1 272 1 284 60 354
47 56 99 77 267 110 88 17 170 31 183 31 39 0 33 45 -8 66 -60 30 -117 76
-144 115 l-27 39 -768 0 -768 0 -15 -22z"/>
<path d="M4284 3280 c-40 -52 -94 -94 -149 -117 -32 -13 -45 -24 -45 -38 0
-18 17 -24 173 -53 94 -18 186 -40 202 -49 44 -22 94 -72 118 -118 21 -37 22
-56 25 -292 l3 -253 125 0 c138 0 172 -10 192 -55 15 -32 15 -70 2 -96 -10
-17 -7 -19 35 -19 l45 0 0 420 0 420 39 0 c60 0 71 22 71 145 0 75 -4 106 -16
123 l-15 22 -387 0 -388 0 -30 -40z"/>
<path d="M3831 2854 c-12 -15 -21 -32 -21 -40 0 -7 32 -87 71 -178 65 -152 73
-165 90 -155 27 14 58 2 69 -27 6 -14 21 -26 37 -30 15 -3 38 -13 50 -20 21
-13 20 -10 -9 59 -120 282 -171 394 -185 405 -29 22 -79 15 -102 -14z"/>
<path d="M3445 1876 c65 -16 103 -37 141 -78 67 -71 69 -78 72 -350 l3 -248
-320 0 c-345 0 -361 -2 -387 -51 -18 -36 -18 -63 1 -99 l16 -30 787 0 788 0
63 96 c126 193 237 434 300 655 17 58 31 109 31 113 0 3 -348 6 -772 5 -635
-1 -764 -3 -723 -13z"/>
</g>
</svg>
